# File created by Blade
# Date/Time:  Tue Jan 27 19:32:37 2015
# Frame Rate: 120.000 fps
#------------------------------------------------------
:FULLY-SPECIFIED
:DEGREES
2216
root 3.557343 32.203812 -0.281086 -5.544353 0.908369 0.160601
Spine 1.741091 2.455393 -0.181506
Head 23.972924 -39.154204 -8.814585
LeftShoulder -4.401175 -6.250329 25.645414
LeftArm 0.238155 41.272409 -99.316730
LeftForeArm 2.349769 -0.000000 12.002985
LeftHand 10.158957 -0.000000 -4.603465
LeftHandThumb1 -26.253704 0.000000 33.147579
RightShoulder -13.481153 -8.265467 -27.627996
RightArm 8.879720 65.089731 69.367741
RightForeArm 0.151420 -0.000000 149.882373
RightHand 29.568460 -0.000000 -31.406654
RightHandThumb1 -24.326973 -0.000000 -32.862282
LeftUpLeg 11.811146 1.857332 -1.109058
LeftLeg 2.508916 -0.000000 -0.000000
LeftFoot -21.012578 17.155114 -23.080533
LeftToeBase 16.336704 -0.000000 -0.000000
RightUpLeg 10.712674 -8.965461 1.199653
RightLeg 1.027331 -0.000000 -0.000000
RightFoot -13.961966 -13.586947 14.289201
RightToeBase 11.821391 -0.000000 -0.000000
2217
root 3.554578 32.203436 -0.278347 -5.554593 0.879476 0.152950
Spine 1.738168 2.468162 -0.196840
Head 24.013283 -39.199519 -8.765344
LeftShoulder -4.403231 -6.231110 25.670065
LeftArm 0.275753 41.264328 -99.299818
LeftForeArm 2.354537 -0.000000 12.069985
LeftHand 10.042455 -0.000000 -4.523760
LeftHandThumb1 -26.253704 0.000000 33.147579
RightShoulder -13.526940 -8.119375 -27.690543
RightArm 9.219738 65.038897 69.571492
RightForeArm -0.173756 -0.000000 150.341733
RightHand 29.956136 -0.000000 -31.223887
RightHandThumb1 -24.326973 -0.000000 -32.862282
LeftUpLeg 11.833158 1.887947 -1.092187
LeftLeg 2.503088 -0.000000 -0.000000
LeftFoot -21.013265 17.153941 -23.068921
LeftToeBase 16.334790 -0.000000 -0.000000
RightUpLeg 10.720980 -8.952629 1.210867
RightLeg 1.033183 -0.000000 -0.000000
RightFoot -13.958716 -13.580731 14.269579
RightToeBase 11.826553 -0.000000 -0.000000
2218
root 3.552420 32.202868 -0.275018 -5.569280 0.853148 0.143691
Spine 1.741832 2.484922 -0.216173
Head 24.052389 -39.265176 -8.693914
LeftShoulder -4.398456 -6.222348 25.707866
LeftArm 0.293646 41.256696 -99.306104
LeftForeArm 2.353761 -0.000000 12.135577
LeftHand 10.054216 0.000000 -4.543932
LeftHandThumb1 -26.253704 0.000000 33.147579
RightShoulder -13.548378 -8.220303 -27.663971
RightArm 10.021778 65.092808 70.134204
RightForeArm -0.240604 -0.000000 150.641996
RightHand 30.051961 -0.000000 -31.271859
RightHandThumb1 -24.326973 -0.000000 -32.862282
LeftUpLeg 11.859002 1.909905 -1.078837
LeftLeg 2.499100 -0.000000 -0.000000
LeftFoot -21.019215 17.168249 -23.059918
LeftToeBase 16.342879 -0.000000 -0.000000
RightUpLeg 10.742521 -8.951932 1.219170
RightLeg 1.024964 -0.000000 -0.000000
RightFoot -13.942911 -13.558630 14.254384
RightToeBase 11.783274 -0.000000 -0.000000
2219
root 3.548359 32.202297 -0.272605 -5.577115 0.813867 0.127212
Spine 1.731283 2.517458 -0.228200
Head 24.117532 -39.338674 -8.648972
LeftShoulder -4.372077 -6.203687 25.734126
LeftArm 0.317006 41.249959 -99.290800
LeftForeArm 2.317400 -0.000000 12.199521
LeftHand 10.107331 0.000000 -4.548398
LeftHandThumb1 -26.253704 0.000000 33.147579
RightShoulder -13.567931 -7.841802 -27.786546
RightArm 9.748744 64.904724 69.767897
RightForeArm -0.152325 -0.000000 150.761031
RightHand 30.133918 0.000000 -31.615163
RightHandThumb1 -24.326973 -0.000000 -32.862282
LeftUpLeg 11.886216 1.883951 -1.064880
LeftLeg 2.484400 -0.000000 -0.000000
LeftFoot -21.039950 17.175251 -23.133674
LeftToeBase 16.152085 -0.000000 -0.000000
RightUpLeg 10.752701 -8.893891 1.245963
RightLeg 1.019585 -0.000000 -0.000000
RightFoot -13.944564 -13.557519 14.290297
RightToeBase 11.826023 -0.000000 -0.000000
